<?xml version="1.0" encoding="UTF-8" standalone="no"?>
<!-- Created with Inkscape (http://www.inkscape.org/) -->

<svg
   xmlns:dc="http://purl.org/dc/elements/1.1/"
   xmlns:cc="http://creativecommons.org/ns#"
   xmlns:rdf="http://www.w3.org/1999/02/22-rdf-syntax-ns#"
   xmlns:svg="http://www.w3.org/2000/svg"
   xmlns="http://www.w3.org/2000/svg"
   xmlns:xlink="http://www.w3.org/1999/xlink"
   xmlns:sodipodi="http://sodipodi.sourceforge.net/DTD/sodipodi-0.dtd"
   xmlns:inkscape="http://www.inkscape.org/namespaces/inkscape"
   width="176.79201mm"
   height="140mm"
   viewBox="0 0 176.79201 140"
   version="1.1"
   id="svg8"
   inkscape:version="0.92.4 (5da689c313, 2019-01-14)"
   sodipodi:docname="140px.svg">
  <defs
     id="defs2">
    <pattern
       patternTransform="matrix(10,0,0,10,-4.8767358,7.326011)"
       id="pattern2351"
       xlink:href="#Strips1_1.5"
       inkscape:collect="always" />
    <pattern
       inkscape:collect="always"
       patternUnits="userSpaceOnUse"
       width="2.5"
       height="1"
       patternTransform="translate(0,0) scale(10,10)"
       id="Strips1_1.5"
       inkscape:stockid="Stripes 1:1.5">
      <rect
         style="fill:black;stroke:none"
         x="0"
         y="-0.5"
         width="1"
         height="2"
         id="rect1611" />
    </pattern>
    <pattern
       patternTransform="matrix(2.0207527,0,0,2.0206607,387.06352,-340.63065)"
       id="pattern1589"
       xlink:href="#p"
       inkscape:collect="always" />
    <pattern
       id="p"
       viewBox="0 0 100 100"
       width="20%"
       height="20%">
      <path
         d="M0,0 h40 L100,60 v40 z m 0,60 v40 h40 z"
         fill="grey"
         id="path857" />
    </pattern>
  </defs>
  <sodipodi:namedview
     id="base"
     pagecolor="#ffffff"
     bordercolor="#666666"
     borderopacity="1.0"
     inkscape:pageopacity="0.0"
     inkscape:pageshadow="2"
     inkscape:zoom="0.98994949"
     inkscape:cx="289.1695"
     inkscape:cy="333.88022"
     inkscape:document-units="mm"
     inkscape:current-layer="layer1-6"
     showgrid="false"
     inkscape:window-width="1920"
     inkscape:window-height="1001"
     inkscape:window-x="-9"
     inkscape:window-y="-9"
     inkscape:window-maximized="1" />
  <metadata
     id="metadata5">
    <rdf:RDF>
      <cc:Work
         rdf:about="">
        <dc:format>image/svg+xml</dc:format>
        <dc:type
           rdf:resource="http://purl.org/dc/dcmitype/StillImage" />
        <dc:title></dc:title>
      </cc:Work>
    </rdf:RDF>
  </metadata>
  <g
     inkscape:label="Layer 1"
     inkscape:groupmode="layer"
     id="layer1"
     transform="translate(0,-157)">
    <g
       transform="translate(-317.18176,95.055352)"
       id="layer1-8"
       inkscape:label="Layer 1">
      <g
         inkscape:label="Layer 1"
         id="layer1-7"
         transform="translate(-344.67857,211.17263)">
        <g
           transform="translate(7.5595232,-5.1026287)"
           id="layer1-68"
           inkscape:label="Layer 1">
          <g
             inkscape:label="Layer 1"
             id="layer1-9"
             transform="matrix(0.83333341,0,0,0.83333341,-60.569317,-14.923871)">
            <g
               transform="matrix(4.122933,0,0,4.1231207,86.014937,-867.15313)"
               id="layer1-6"
               inkscape:label="Layer 1"
               style="fill:#ffff65;fill-opacity:0">
              <path
                 style="opacity:1;fill:#cccccc;fill-opacity:0.4;stroke:none;stroke-width:0.43083337;stroke-linecap:round;stroke-linejoin:round;stroke-miterlimit:4;stroke-dasharray:none;stroke-dashoffset:0;stroke-opacity:1"
                 d="m 187.2039,172.71175 h 51.45613 v 40.74583 H 187.2039 Z"
                 id="rect859" />
              <g
                 aria-label="Kein Bild 
vorhanden"
                 transform="matrix(2.0135955,0,0,2.0135037,-39.229829,-127.17637)"
                 style="font-style:normal;font-variant:normal;font-weight:normal;font-stretch:normal;font-size:3.67143989px;line-height:1.25;font-family:Candara;-inkscape-font-specification:'Candara, Normal';font-variant-ligatures:normal;font-variant-caps:normal;font-variant-numeric:normal;font-feature-settings:normal;text-align:start;letter-spacing:0px;word-spacing:0px;writing-mode:lr-tb;text-anchor:start;fill:#808080;fill-opacity:1;stroke:none"
                 id="flowRoot5420">
                <path
                   d="m 117.51428,156.79808 q -0.29041,-0.33882 -0.44279,-0.44996 -0.15238,-0.11294 -0.27249,-0.11294 h -0.0628 q 0,0.63102 0.0197,1.2513 h -0.18823 q 0.0143,-0.3693 0.0215,-0.64896 0.009,-0.27966 0.009,-0.58083 0,-0.54319 -0.0305,-1.10609 h 0.18823 q -0.0197,0.37288 -0.0197,0.96626 h 0.0484 q 0.14341,0 0.59876,-0.45535 0.45534,-0.45534 0.45534,-0.51091 h 0.21692 q 0,0.0233 -0.0986,0.10935 -0.0968,0.0861 -0.42487,0.42128 -0.32806,0.33344 -0.52347,0.46431 v 0.0125 q 0.11832,0.0269 0.26891,0.16672 0.15238,0.13983 0.49478,0.53422 0.51809,0.59159 0.51809,0.62745 h -0.20257 q -0.005,-0.0161 -0.19541,-0.24202 -0.18823,-0.22588 -0.37826,-0.44638 z"
                   style="font-style:normal;font-variant:normal;font-weight:normal;font-stretch:normal;font-size:3.67143989px;font-family:Candara;-inkscape-font-specification:'Candara, Normal';font-variant-ligatures:normal;font-variant-caps:normal;font-variant-numeric:normal;font-feature-settings:normal;text-align:start;word-spacing:-0.1166447px;writing-mode:lr-tb;text-anchor:start"
                   id="path5768" />
                <path
                   d="m 118.97511,156.59013 q 0,0.34778 0.21334,0.57545 0.21512,0.22588 0.57904,0.22588 0.27607,0 0.45893,-0.0556 l -0.0251,0.14342 q -0.0556,0.0179 -0.1721,0.0341 -0.11653,0.0179 -0.24739,0.0179 -0.47507,0 -0.71529,-0.24918 -0.23843,-0.25098 -0.23843,-0.61848 0,-0.1954 0.0466,-0.36212 0.0484,-0.16672 0.14342,-0.30476 0.22588,-0.294 0.58083,-0.294 0.3191,0 0.49479,0.20616 0.17747,0.20616 0.17747,0.50912 0,0.0986 -0.007,0.15776 z m 0.0108,-0.12728 h 1.12402 q 0,-0.30297 -0.13087,-0.4661 -0.13086,-0.16314 -0.38722,-0.16314 -0.23843,0 -0.40156,0.16134 -0.16134,0.15955 -0.20437,0.4679 z"
                   style="font-style:normal;font-variant:normal;font-weight:normal;font-stretch:normal;font-size:3.67143989px;font-family:Candara;-inkscape-font-specification:'Candara, Normal';font-variant-ligatures:normal;font-variant-caps:normal;font-variant-numeric:normal;font-feature-settings:normal;text-align:start;word-spacing:-0.1166447px;writing-mode:lr-tb;text-anchor:start"
                   id="path5770" />
                <path
                   d="m 121.12076,155.11116 q 0.0484,0 0.0789,0.043 0.0305,0.0412 0.0305,0.0968 0,0.0645 -0.0323,0.11114 -0.0323,0.0466 -0.0986,0.0466 -0.0556,0 -0.0896,-0.0412 -0.0323,-0.0412 -0.0323,-0.0986 0,-0.0609 0.0376,-0.10935 0.0394,-0.0484 0.10577,-0.0484 z m -0.15418,0.6866 0.20258,-0.0484 q -0.0197,0.41769 -0.0197,0.94475 0,0.43741 0.0269,0.79237 h -0.18823 q 0.0269,-0.43384 0.0269,-0.79237 0,-0.50554 -0.0484,-0.89635 z"
                   style="font-style:normal;font-variant:normal;font-weight:normal;font-stretch:normal;font-size:3.67143989px;font-family:Candara;-inkscape-font-specification:'Candara, Normal';font-variant-ligatures:normal;font-variant-caps:normal;font-variant-numeric:normal;font-feature-settings:normal;text-align:start;word-spacing:-0.1166447px;writing-mode:lr-tb;text-anchor:start"
                   id="path5772" />
                <path
                   d="m 122.16747,155.98778 h 0.004 q 0.294,-0.26352 0.58442,-0.26352 0.31013,0 0.4661,0.13266 0.15776,0.13266 0.15776,0.46251 l -0.002,0.12908 q 0,0.0305 -0.002,0.0914 0,0.21871 0.002,0.35317 l 0.002,0.59338 h -0.17927 q 0.043,-0.54677 0.043,-1.13478 0,-0.27607 -0.14879,-0.37826 -0.147,-0.10218 -0.38005,-0.10218 -0.29938,0 -0.54678,0.23126 -0.004,0.13086 -0.004,0.44817 0,0.23305 0.002,0.441 l 0.004,0.38005 q 0,0.0377 0.002,0.11474 h -0.1721 q 0.0323,-0.66151 0.0323,-0.88201 0,-0.35854 -0.0717,-0.82105 l 0.17569,-0.0377 z"
                   style="font-style:normal;font-variant:normal;font-weight:normal;font-stretch:normal;font-size:3.67143989px;font-family:Candara;-inkscape-font-specification:'Candara, Normal';font-variant-ligatures:normal;font-variant-caps:normal;font-variant-numeric:normal;font-feature-settings:normal;text-align:start;word-spacing:-0.1166447px;writing-mode:lr-tb;text-anchor:start"
                   id="path5774" />
                <path
                   d="m 125.23243,157.48648 0.0126,-0.37468 q 0.0215,-0.54139 0.0215,-0.85511 0,-0.18465 -0.005,-0.39081 -0.005,-0.20795 -0.0143,-0.44638 l -0.0108,-0.2689 h 0.15059 q 0.0842,0 0.20616,-0.005 l 0.11831,-0.004 q 0.0681,0 0.1488,-0.002 0.35495,0 0.53243,0.12907 0.17747,0.12728 0.17747,0.38185 0,0.1954 -0.10218,0.3424 -0.10039,0.14521 -0.26173,0.21513 v 0.0108 q 0.23663,0.0269 0.38005,0.17031 0.14521,0.14162 0.14521,0.3675 0,0.35675 -0.27966,0.54857 -0.27966,0.19181 -0.7368,0.19181 -0.0896,0 -0.48224,-0.0108 z m 0.15776,-2.20323 q 0.007,0.0323 0.009,0.24202 0.002,0.20974 0.002,0.62923 0.0735,0.004 0.30117,0.004 l 0.0771,0.002 q 0.23484,0 0.43204,-0.0914 0.19898,-0.0932 0.21153,-0.37647 0,-0.21154 -0.13983,-0.31552 -0.13983,-0.10397 -0.43741,-0.10397 -0.17927,0 -0.31193,0.005 -0.13087,0.005 -0.14342,0.005 z m 0.0108,1.01288 -0.002,0.53064 q 0,0.33702 0.0108,0.51988 0.0932,0.0215 0.28145,0.0215 0.40874,0 0.65075,-0.14162 0.24202,-0.14163 0.24202,-0.42308 0,-0.24918 -0.19899,-0.38543 -0.1972,-0.13624 -0.6382,-0.13624 -0.13983,0 -0.20796,0.004 -0.0681,0.002 -0.13803,0.0108 z"
                   style="font-style:normal;font-variant:normal;font-weight:normal;font-stretch:normal;font-size:3.67143989px;font-family:Candara;-inkscape-font-specification:'Candara, Normal';font-variant-ligatures:normal;font-variant-caps:normal;font-variant-numeric:normal;font-feature-settings:normal;text-align:start;word-spacing:-0.1166447px;writing-mode:lr-tb;text-anchor:start"
                   id="path5776" />
                <path
                   d="m 127.57169,155.11116 q 0.0484,0 0.0789,0.043 0.0305,0.0412 0.0305,0.0968 0,0.0645 -0.0323,0.11114 -0.0323,0.0466 -0.0986,0.0466 -0.0556,0 -0.0896,-0.0412 -0.0323,-0.0412 -0.0323,-0.0986 0,-0.0609 0.0376,-0.10935 0.0394,-0.0484 0.10577,-0.0484 z m -0.15418,0.6866 0.20258,-0.0484 q -0.0197,0.41769 -0.0197,0.94475 0,0.43741 0.0269,0.79237 h -0.18823 q 0.0269,-0.43384 0.0269,-0.79237 0,-0.50554 -0.0484,-0.89635 z"
                   style="font-style:normal;font-variant:normal;font-weight:normal;font-stretch:normal;font-size:3.67143989px;font-family:Candara;-inkscape-font-specification:'Candara, Normal';font-variant-ligatures:normal;font-variant-caps:normal;font-variant-numeric:normal;font-feature-settings:normal;text-align:start;word-spacing:-0.1166447px;writing-mode:lr-tb;text-anchor:start"
                   id="path5778" />
                <path
                   d="m 128.37998,154.96057 0.21333,-0.007 q -0.0215,0.47327 -0.0215,1.19214 0,0.71349 0.0287,1.34094 h -0.20975 q 0.0341,-0.55753 0.0341,-1.34094 0,-0.65971 -0.0448,-1.18497 z"
                   style="font-style:normal;font-variant:normal;font-weight:normal;font-stretch:normal;font-size:3.67143989px;font-family:Candara;-inkscape-font-specification:'Candara, Normal';font-variant-ligatures:normal;font-variant-caps:normal;font-variant-numeric:normal;font-feature-settings:normal;text-align:start;word-spacing:-0.1166447px;writing-mode:lr-tb;text-anchor:start"
                   id="path5780" />
                <path
                   d="m 130.86444,155.77804 0.002,0.36033 q 0,0.79954 0.0323,1.34811 l -0.15059,0.004 q -0.0143,-0.0842 -0.0143,-0.19361 h -0.0179 q -0.0825,0.0986 -0.24201,0.16672 -0.15955,0.0681 -0.36033,0.0681 -0.32807,0 -0.53602,-0.24559 -0.20616,-0.2474 -0.20616,-0.60414 0,-0.42666 0.23485,-0.69557 0.23484,-0.2689 0.62744,-0.2689 0.16313,0 0.28145,0.0376 0.12011,0.0359 0.18465,0.10577 h 0.004 q 0,-0.32268 -0.0143,-0.89634 l 0.18824,-0.0108 q -0.0144,0.21512 -0.0144,0.52167 0,0.1972 0.002,0.30297 z m -0.16135,0.21333 q -0.0771,-0.0735 -0.19181,-0.10936 -0.11474,-0.0359 -0.25098,-0.0359 -0.35675,0 -0.53781,0.21512 -0.17927,0.21334 -0.17927,0.62028 0,0.32089 0.17031,0.51271 0.1721,0.19002 0.47327,0.19002 0.15058,0 0.27428,-0.0484 0.1237,-0.0502 0.26891,-0.20257 0,-0.0914 0.002,-0.27429 0,-0.4661 -0.0287,-0.86766 z"
                   style="font-style:normal;font-variant:normal;font-weight:normal;font-stretch:normal;font-size:3.67143989px;font-family:Candara;-inkscape-font-specification:'Candara, Normal';font-variant-ligatures:normal;font-variant-caps:normal;font-variant-numeric:normal;font-feature-settings:normal;text-align:start;word-spacing:-0.1166447px;writing-mode:lr-tb;text-anchor:start"
                   id="path5782" />
                <path
                   d="m 117.05356,162.07577 h -0.0861 q 0,-0.0663 -0.0861,-0.28504 -0.0843,-0.21871 -0.26173,-0.59696 l -0.0681,-0.14701 q -0.14163,-0.30296 -0.21154,-0.46251 -0.0699,-0.15955 -0.0699,-0.21154 h 0.16672 q 0,0.0914 0.29221,0.72784 0.294,0.63461 0.294,0.72245 h 0.0108 q 0,-0.0789 0.13266,-0.38364 0.13266,-0.30655 0.29579,-0.64178 0.16314,-0.33703 0.16314,-0.42487 h 0.1721 q 0,0.0538 -0.37288,0.82106 -0.37109,0.76727 -0.37109,0.882 z"
                   style="font-style:normal;font-variant:normal;font-weight:normal;font-stretch:normal;font-size:3.67143989px;font-family:Candara;-inkscape-font-specification:'Candara, Normal';font-variant-ligatures:normal;font-variant-caps:normal;font-variant-numeric:normal;font-feature-settings:normal;text-align:start;letter-spacing:0.24896958px;word-spacing:0.25661826px;writing-mode:lr-tb;text-anchor:start;fill:#808080"
                   id="path5784" />
                <path
                   d="m 119.13287,162.14569 q -0.32448,0 -0.54319,-0.22768 -0.21691,-0.22946 -0.21691,-0.62744 0,-0.46072 0.24381,-0.72783 0.2438,-0.26711 0.59696,-0.26711 0.27966,0 0.51451,0.21512 0.23484,0.21333 0.23484,0.65075 0,0.45355 -0.2456,0.71887 -0.24381,0.26532 -0.58442,0.26532 z m 0.0323,-1.72995 q -0.32986,0 -0.48403,0.25456 -0.15417,0.25277 -0.15417,0.5396 0,0.35854 0.17568,0.58621 0.17569,0.22767 0.46611,0.22767 0.32806,0 0.48582,-0.25456 0.15775,-0.25456 0.15775,-0.53781 0,-0.34957 -0.17927,-0.58262 -0.17927,-0.23305 -0.46789,-0.23305 z"
                   style="font-style:normal;font-variant:normal;font-weight:normal;font-stretch:normal;font-size:3.67143989px;font-family:Candara;-inkscape-font-specification:'Candara, Normal';font-variant-ligatures:normal;font-variant-caps:normal;font-variant-numeric:normal;font-feature-settings:normal;text-align:start;letter-spacing:0.24896958px;word-spacing:0.25661826px;writing-mode:lr-tb;text-anchor:start;fill:#808080"
                   id="path5786" />
                <path
                   d="m 121.65319,160.53047 q -0.14342,-0.0592 -0.30118,-0.0592 -0.16672,0 -0.29041,0.095 -0.12191,0.095 -0.17927,0.27608 0,0.84256 0.0143,1.23337 h -0.17569 q 0.0179,-0.4912 0.0179,-0.882 0,-0.40695 -0.0699,-0.81747 l 0.15775,-0.0412 q 0.0412,0.21334 0.0448,0.29042 h 0.0215 q 0.11115,-0.15776 0.22409,-0.23484 0.11473,-0.0771 0.23843,-0.0771 0.14162,0 0.3442,0.0592 z"
                   style="font-style:normal;font-variant:normal;font-weight:normal;font-stretch:normal;font-size:3.67143989px;font-family:Candara;-inkscape-font-specification:'Candara, Normal';font-variant-ligatures:normal;font-variant-caps:normal;font-variant-numeric:normal;font-feature-settings:normal;text-align:start;letter-spacing:0.24896958px;word-spacing:0.25661826px;writing-mode:lr-tb;text-anchor:start;fill:#808080"
                   id="path5788" />
                <path
                   d="m 122.15313,159.54986 0.21154,-0.007 -0.005,0.20079 q -0.0126,0.62744 -0.0126,0.82284 h 0.004 q 0.14521,-0.12369 0.31014,-0.18823 0.16672,-0.0645 0.32089,-0.0645 0.28145,0 0.441,0.13804 0.16134,0.13624 0.16134,0.47506 v 0.12908 q -0.004,0.0609 -0.004,0.20078 0,0.42308 0.004,0.81926 h -0.17927 q 0.0359,-0.4661 0.0359,-1.14195 0,-0.25277 -0.1237,-0.36212 -0.1219,-0.11115 -0.35316,-0.11115 -0.30655,0 -0.61669,0.23126 0,1.1043 0.0144,1.38396 h -0.1721 q 0.0143,-0.53781 0.0143,-1.34093 0,-0.77983 -0.0502,-1.18498 z"
                   style="font-style:normal;font-variant:normal;font-weight:normal;font-stretch:normal;font-size:3.67143989px;font-family:Candara;-inkscape-font-specification:'Candara, Normal';font-variant-ligatures:normal;font-variant-caps:normal;font-variant-numeric:normal;font-feature-settings:normal;text-align:start;letter-spacing:0.24896958px;word-spacing:0.25661826px;writing-mode:lr-tb;text-anchor:start;fill:#808080"
                   id="path5790" />
                <path
                   d="m 125.4461,161.89292 q -0.23843,0.22767 -0.60235,0.22767 -0.27249,0 -0.41949,-0.12011 -0.147,-0.1219 -0.147,-0.35496 0,-0.2922 0.25098,-0.44996 0.25277,-0.15776 0.91786,-0.16314 0.007,-0.0645 0.007,-0.12728 0,-0.2456 -0.13983,-0.34061 -0.13983,-0.0968 -0.38184,-0.0968 -0.28684,0 -0.57725,0.0735 l 0.0233,-0.15417 q 0.27429,-0.0735 0.56112,-0.0735 0.31013,0 0.48402,0.12908 0.1739,0.12728 0.1739,0.42487 0,0.0968 -0.0108,0.28324 -0.009,0.18465 -0.009,0.3675 0,0.26353 0.0412,0.55753 l -0.14342,0.007 q -0.0179,-0.11114 -0.0179,-0.19002 z m 0.007,-0.73501 q -0.47327,0 -0.74397,0.10936 -0.2707,0.10756 -0.2707,0.39439 0,0.3191 0.42308,0.3191 0.19361,0 0.34241,-0.0574 0.15058,-0.0574 0.24918,-0.17389 z"
                   style="font-style:normal;font-variant:normal;font-weight:normal;font-stretch:normal;font-size:3.67143989px;font-family:Candara;-inkscape-font-specification:'Candara, Normal';font-variant-ligatures:normal;font-variant-caps:normal;font-variant-numeric:normal;font-feature-settings:normal;text-align:start;letter-spacing:0.24896958px;word-spacing:0.25661826px;writing-mode:lr-tb;text-anchor:start;fill:#808080"
                   id="path5792" />
                <path
                   d="m 126.63086,160.57708 h 0.004 q 0.294,-0.26353 0.58442,-0.26353 0.31014,0 0.4661,0.13266 0.15776,0.13266 0.15776,0.46252 l -0.002,0.12907 q 0,0.0305 -0.002,0.0914 0,0.21871 0.002,0.35316 l 0.002,0.59338 h -0.17927 q 0.043,-0.54677 0.043,-1.13477 0,-0.27608 -0.14879,-0.37826 -0.147,-0.10219 -0.38005,-0.10219 -0.29938,0 -0.54677,0.23126 -0.004,0.13087 -0.004,0.44817 0,0.23306 0.002,0.44101 l 0.004,0.38005 q 0,0.0377 0.002,0.11473 h -0.1721 q 0.0323,-0.6615 0.0323,-0.882 0,-0.35854 -0.0717,-0.82106 l 0.17569,-0.0377 z"
                   style="font-style:normal;font-variant:normal;font-weight:normal;font-stretch:normal;font-size:3.67143989px;font-family:Candara;-inkscape-font-specification:'Candara, Normal';font-variant-ligatures:normal;font-variant-caps:normal;font-variant-numeric:normal;font-feature-settings:normal;text-align:start;letter-spacing:0.24896958px;word-spacing:0.25661826px;writing-mode:lr-tb;text-anchor:start;fill:#808080"
                   id="path5794" />
                <path
                   d="m 130.08875,160.36733 0.002,0.36033 q 0,0.79955 0.0323,1.34811 l -0.15059,0.004 q -0.0143,-0.0843 -0.0143,-0.19361 h -0.0179 q -0.0825,0.0986 -0.24202,0.16672 -0.15955,0.0681 -0.36033,0.0681 -0.32806,0 -0.53602,-0.2456 -0.20616,-0.24739 -0.20616,-0.60414 0,-0.42666 0.23485,-0.69556 0.23484,-0.26891 0.62744,-0.26891 0.16314,0 0.28145,0.0377 0.12012,0.0359 0.18465,0.10577 h 0.004 q 0,-0.32269 -0.0143,-0.89635 l 0.18823,-0.0108 q -0.0143,0.21513 -0.0143,0.52168 0,0.19719 0.002,0.30296 z m -0.16134,0.21333 q -0.0771,-0.0735 -0.19182,-0.10935 -0.11473,-0.0358 -0.25098,-0.0358 -0.35674,0 -0.53781,0.21512 -0.17927,0.21333 -0.17927,0.62027 0,0.32089 0.17031,0.51271 0.1721,0.19003 0.47327,0.19003 0.15059,0 0.27428,-0.0484 0.1237,-0.0502 0.26891,-0.20258 0,-0.0914 0.002,-0.27428 0,-0.4661 -0.0287,-0.86767 z"
                   style="font-style:normal;font-variant:normal;font-weight:normal;font-stretch:normal;font-size:3.67143989px;font-family:Candara;-inkscape-font-specification:'Candara, Normal';font-variant-ligatures:normal;font-variant-caps:normal;font-variant-numeric:normal;font-feature-settings:normal;text-align:start;letter-spacing:0.24896958px;word-spacing:0.25661826px;writing-mode:lr-tb;text-anchor:start;fill:#808080"
                   id="path5796" />
                <path
                   d="m 131.00998,161.17942 q 0,0.34779 0.21333,0.57546 0.21512,0.22588 0.57904,0.22588 0.27608,0 0.45893,-0.0556 l -0.0251,0.14341 q -0.0556,0.0179 -0.1721,0.0341 -0.11652,0.0179 -0.24739,0.0179 -0.47506,0 -0.71528,-0.24919 -0.23843,-0.25097 -0.23843,-0.61848 0,-0.1954 0.0466,-0.36212 0.0484,-0.16672 0.14341,-0.30476 0.22588,-0.294 0.58084,-0.294 0.3191,0 0.49478,0.20616 0.17748,0.20616 0.17748,0.50913 0,0.0986 -0.007,0.15775 z m 0.0108,-0.12728 h 1.12402 q 0,-0.30296 -0.13087,-0.4661 -0.13087,-0.16313 -0.38722,-0.16313 -0.23843,0 -0.40157,0.16134 -0.16134,0.15955 -0.20436,0.46789 z"
                   style="font-style:normal;font-variant:normal;font-weight:normal;font-stretch:normal;font-size:3.67143989px;font-family:Candara;-inkscape-font-specification:'Candara, Normal';font-variant-ligatures:normal;font-variant-caps:normal;font-variant-numeric:normal;font-feature-settings:normal;text-align:start;letter-spacing:0.24896958px;word-spacing:0.25661826px;writing-mode:lr-tb;text-anchor:start;fill:#808080"
                   id="path5798" />
                <path
                   d="m 133.25063,160.57708 h 0.004 q 0.294,-0.26353 0.58442,-0.26353 0.31013,0 0.4661,0.13266 0.15776,0.13266 0.15776,0.46252 l -0.002,0.12907 q 0,0.0305 -0.002,0.0914 0,0.21871 0.002,0.35316 l 0.002,0.59338 h -0.17927 q 0.043,-0.54677 0.043,-1.13477 0,-0.27608 -0.14879,-0.37826 -0.147,-0.10219 -0.38005,-0.10219 -0.29938,0 -0.54678,0.23126 -0.004,0.13087 -0.004,0.44817 0,0.23306 0.002,0.44101 l 0.004,0.38005 q 0,0.0377 0.002,0.11473 h -0.1721 q 0.0323,-0.6615 0.0323,-0.882 0,-0.35854 -0.0717,-0.82106 l 0.17569,-0.0377 z"
                   style="font-style:normal;font-variant:normal;font-weight:normal;font-stretch:normal;font-size:3.67143989px;font-family:Candara;-inkscape-font-specification:'Candara, Normal';font-variant-ligatures:normal;font-variant-caps:normal;font-variant-numeric:normal;font-feature-settings:normal;text-align:start;letter-spacing:0.24896958px;word-spacing:0.25661826px;writing-mode:lr-tb;text-anchor:start;fill:#808080"
                   id="path5800" />
              </g>
              <flowRoot
                 xml:space="preserve"
                 id="flowRoot5628"
                 style="fill:black;fill-opacity:1;stroke:none;font-family:'Yu Gothic UI';font-style:normal;font-weight:normal;font-size:3.13933341px;line-height:1.25;letter-spacing:0px;word-spacing:0px;-inkscape-font-specification:'Yu Gothic UI, Normal';font-stretch:normal;font-variant:normal;text-anchor:start;text-align:start;writing-mode:lr;font-variant-ligatures:normal;font-variant-caps:normal;font-variant-numeric:normal;font-feature-settings:normal"><flowRegion
                   id="flowRegion5630"><rect
                     id="rect5632"
                     width="12.121831"
                     height="36.36549"
                     x="-97.984795"
                     y="-157.76988" /></flowRegion><flowPara
                   id="flowPara5634"></flowPara></flowRoot>            </g>
          </g>
        </g>
      </g>
    </g>
  </g>
</svg>
