<?xml version="1.0" encoding="UTF-8" standalone="no"?>
<!-- Created with Inkscape (http://www.inkscape.org/) -->

<svg
   xmlns:dc="http://purl.org/dc/elements/1.1/"
   xmlns:cc="http://creativecommons.org/ns#"
   xmlns:rdf="http://www.w3.org/1999/02/22-rdf-syntax-ns#"
   xmlns:svg="http://www.w3.org/2000/svg"
   xmlns="http://www.w3.org/2000/svg"
   xmlns:sodipodi="http://sodipodi.sourceforge.net/DTD/sodipodi-0.dtd"
   xmlns:inkscape="http://www.inkscape.org/namespaces/inkscape"
   width="24.253mm"
   height="24.253mm"
   viewBox="0 0 29.103599 29.103599"
   version="1.1"
   id="svg8"
   sodipodi:docname="placeholder.svg"
   inkscape:version="0.92.4 (5da689c313, 2019-01-14)">
  <defs
     id="defs2" />
  <sodipodi:namedview
     id="base"
     pagecolor="#ffffff"
     bordercolor="#666666"
     borderopacity="1.0"
     inkscape:pageopacity="0.0"
     inkscape:pageshadow="2"
     inkscape:zoom="2.8284271"
     inkscape:cx="3.1165066"
     inkscape:cy="25.050878"
     inkscape:document-units="mm"
     inkscape:current-layer="layer1"
     showgrid="false"
     inkscape:window-width="1920"
     inkscape:window-height="1001"
     inkscape:window-x="-9"
     inkscape:window-y="-9"
     inkscape:window-maximized="1"
     scale-x="1.2" />
  <metadata
     id="metadata5">
    <rdf:RDF>
      <cc:Work
         rdf:about="">
        <dc:format>image/svg+xml</dc:format>
        <dc:type
           rdf:resource="http://purl.org/dc/dcmitype/StillImage" />
        <dc:title></dc:title>
      </cc:Work>
    </rdf:RDF>
  </metadata>
  <g
     inkscape:label="Layer 1"
     inkscape:groupmode="layer"
     id="layer1"
     transform="translate(0,-273.71723)">
    <rect
       style="opacity:1;fill:#2f4052;fill-opacity:1;stroke:none;stroke-width:0.23048124;stroke-linecap:round;stroke-linejoin:round;stroke-miterlimit:4;stroke-dasharray:none;stroke-dashoffset:0;stroke-opacity:1"
       id="rect853"
       width="29.1036"
       height="29.1036"
       x="-55.789837"
       y="270.12515" />
    <g
       transform="translate(-0.85041828,3.4112225)"
       id="layer1-6"
       inkscape:label="Layer 1"
       style="fill:#ffffff;fill-opacity:0">
      <g
         transform="matrix(0.26458333,0,0,0.26458333,-335.35938,86.845238)"
         id="g874"
         style="fill:#ffffff;fill-opacity:0">
        <g
           id="Artboard"
           style="fill:#ffffff;fill-opacity:0" />
        <g
           id="Multicolor"
           transform="translate(-0.71428577,4.8214287)"
           style="fill:#ffffff;fill-opacity:0">
          <g
             transform="translate(1271.4286,691.74923)"
             id="g849"
             style="fill:#ffffff;fill-opacity:0">
            <flowRoot
               transform="translate(-277.43112,-403.45445)"
               style="font-style:normal;font-variant:normal;font-weight:normal;font-stretch:normal;font-size:3.13933349px;line-height:1.25;font-family:'Yu Gothic UI';-inkscape-font-specification:'Yu Gothic UI, Normal';font-variant-ligatures:normal;font-variant-caps:normal;font-variant-numeric:normal;font-feature-settings:normal;text-align:start;letter-spacing:0px;word-spacing:0px;writing-mode:lr-tb;text-anchor:start;fill:#ffffff;fill-opacity:0;stroke:none"
               id="flowRoot895"
               xml:space="preserve"><flowRegion
                 id="flowRegion897"
                 style="fill:#ffffff;fill-opacity:0"><rect
                   y="434.6058"
                   x="454.56863"
                   height="84.852814"
                   width="81.822357"
                   id="rect899"
                   style="fill:#ffffff;fill-opacity:0" /></flowRegion><flowPara
                 id="flowPara903" /></flowRoot>            <g
               id="flowRoot911"
               style="font-style:normal;font-variant:normal;font-weight:normal;font-stretch:normal;font-size:3.13933349px;line-height:1.25;font-family:'Yu Gothic UI';-inkscape-font-specification:'Yu Gothic UI, Normal';font-variant-ligatures:normal;font-variant-caps:normal;font-variant-numeric:normal;font-feature-settings:normal;text-align:start;letter-spacing:0px;word-spacing:0px;writing-mode:lr-tb;text-anchor:start;fill:#ffffff;fill-opacity:0;stroke:none"
               transform="translate(-277.43112,-403.45445)"
               aria-label="        TTV 48 SCHMALKALDEN">
              <path
                 d="m 710.52733,464.59179 v 27.50781 h -4.13802 l -8.62239,-16.64323 q -0.20052,-0.38281 -3.91927,-8.02083 h -0.56511 q 0,0.94791 0.0911,4.72135 0.0547,2.44271 0.0547,4.11979 v 15.82292 h -3.02605 v -27.50781 h 5.04948 l 7.875,15.42187 q 0.98438,1.89583 2.16927,4.5026 1.40365,3.09896 1.71354,3.73698 h 0.58334 q -0.29167,-7.85677 -0.29167,-9.02343 v -14.63802 z m -25.92188,0 v 2.73437 h -14.07292 v 8.80469 h 10.64583 v 2.73437 h -10.64583 v 10.5 h 14.32813 v 2.73438 h -17.57292 v -27.50781 z m -45.09894,0 h 8.51302 q 6.65364,0 9.98958,3.80989 3.04427,3.46354 3.04427,9.80729 0,7.21875 -4.22917,10.86459 -3.51823,3.02604 -9.33333,3.02604 h -7.98437 z m 3.24479,2.64323 v 22.22135 h 4.6302 q 4.97657,0 7.60157,-2.88021 2.64323,-2.89844 2.64323,-8.33073 0,-11.01041 -9.95313,-11.01041 z m -22.23958,-2.64323 v 24.73697 h 13.63541 v 2.77084 h -16.8802 v -27.50781 z m -17.24479,0 8.84114,27.50781 h -3.39062 l -2.66146,-8.73177 h -9.80729 l -2.77084,8.73177 h -3.17187 l 8.84115,-27.50781 z m 2.07812,16.24218 -2.04167,-6.6901 q -0.80208,-2.57031 -1.95052,-7.05469 h -0.5651 q -0.92969,3.88281 -1.89583,7.01823 l -2.02344,6.72656 z m -18.57552,-16.24218 -10.04427,11.08333 11.08333,16.42448 h -3.79166 l -9.42448,-14.21875 -4.21094,4.44791 v 9.77084 h -3.20833 v -27.50781 h 3.20833 v 14.07291 l 12.50521,-14.07291 z m -38.59115,0 v 24.73697 h 13.63541 v 2.77084 h -16.88021 v -27.50781 z m -17.24479,0 8.84115,27.50781 h -3.39063 l -2.66146,-8.73177 h -9.80729 l -2.77083,8.73177 h -3.17188 l 8.84115,-27.50781 z m 2.07813,16.24218 -2.04167,-6.6901 q -0.80208,-2.57031 -1.95052,-7.05469 h -0.56511 q -0.92968,3.88281 -1.89583,7.01823 l -2.02344,6.72656 z m -20.23438,-16.24218 v 27.50781 h -3.09896 v -16.16927 l 0.0729,-8.69531 h -0.63802 q -1.38542,5.17708 -2.42448,8.47656 l -5.17708,16.38802 h -4.15625 l -5.06771,-16.35156 q -0.56511,-1.76823 -1.34896,-4.50261 -0.875,-3.08073 -1.14844,-4.01041 h -0.63802 q -0.0182,0.60156 -0.0182,1.27604 l 0.0911,7.47396 v 16.11458 h -2.91667 v -27.50781 h 5.45052 l 4.92188,16.20572 q 0.36458,1.20313 1.33073,4.42969 0.72916,2.47917 1.18489,3.95573 h 0.63802 q 0.20052,-0.63802 2.57031,-8.3125 l 4.9948,-16.27864 z m -34.30729,0 v 27.50781 h -3.24479 v -13.05208 h -13.52604 v 13.05208 h -3.24479 v -27.50781 h 3.24479 v 11.68489 h 13.52604 v -11.68489 z m -25.70312,7.38281 -3.22657,0.875 q -1.38541,-6.07031 -6.67187,-6.07031 -3.88281,0 -6.08854,3.35416 -2.02344,3.0625 -2.02344,8.22136 0,5.86979 2.60677,8.98698 2.16927,2.58854 5.50521,2.58854 5.59635,0 6.98177,-6.16146 l 3.09896,1.05729 q -2.24219,7.80208 -10.11719,7.80208 -5.45052,0 -8.6224,-4.22916 -2.8802,-3.8099 -2.8802,-9.98959 0,-7.10937 3.70052,-11.02864 3.09896,-3.28125 7.80208,-3.28125 4.10156,0 6.78125,2.36979 2.27865,2.02344 3.15365,5.50521 z m -26.52344,-1.33073 -3.24479,0.96615 q -1.40365,-4.86719 -5.83334,-4.86719 -2.73437,0 -4.22916,1.36719 -1.29427,1.18489 -1.29427,3.08072 0,2.29688 1.42187,3.46355 1.25781,1.03906 4.30209,1.80468 l 1.18489,0.34636 q 5.03125,1.27604 6.81771,3.39062 1.40364,1.67709 1.40364,4.59375 0,3.82813 -2.77083,5.94271 -2.51562,1.89583 -6.70833,1.89583 -4.10156,0 -6.70833,-1.98698 -2.29688,-1.75 -3.22657,-4.92187 l 3.20834,-1.13021 q 0.6927,2.80729 2.69791,4.22917 1.67709,1.16666 3.95573,1.16666 3.29948,0 4.92188,-1.53125 1.3125,-1.23958 1.3125,-3.29947 0,-2.35157 -1.36719,-3.5 -1.33073,-1.14844 -4.79427,-2.0599 l -1.09375,-0.32812 q -4.64844,-1.25782 -6.38021,-3.29948 -1.42187,-1.69532 -1.42187,-4.63021 0,-3.26302 2.51562,-5.30469 2.36979,-1.93229 6.17969,-1.93229 7.03646,0 9.15104,6.54427 z M 606.1289,430.99544 q 3.39063,1.53125 4.70313,3.46354 1.09375,1.6224 1.09375,4.02865 0,3.68229 -2.625,5.70573 -2.26042,1.73177 -5.81511,1.73177 -4.0651,0 -6.36198,-2.1875 -2.04166,-1.96875 -2.04166,-5.14063 0,-2.51562 1.5677,-4.24739 1.34896,-1.47656 4.21094,-2.84375 -2.88021,-1.42188 -4.04687,-3.22656 -0.98438,-1.4948 -0.98438,-3.62761 0,-3.09896 2.38802,-5.03125 2.11459,-1.69531 5.26823,-1.69531 3.64583,0 5.85156,2.09635 1.91407,1.82292 1.91407,4.50261 0,2.38802 -1.34896,3.95573 -1.20313,1.38541 -3.77344,2.51562 z m -2.16927,-1.05729 q 2.58854,-1.11198 3.55469,-2.51562 0.78385,-1.13021 0.78385,-2.82553 0,-2.02343 -1.51302,-3.20833 -1.3125,-1.03906 -3.29948,-1.03906 -2.26041,0 -3.55469,1.3125 -1.14843,1.16667 -1.14843,2.98958 0,1.71354 1.07552,2.84375 1.0026,1.05729 3.35416,2.11459 z m -0.89323,2.66146 q -2.84375,1.33073 -3.99219,2.80729 -1.0026,1.29427 -1.0026,3.04427 0,2.44271 1.65885,3.82813 1.44011,1.22135 3.75521,1.22135 2.73438,0 4.19271,-1.51302 1.25781,-1.29427 1.25781,-3.40885 0,-1.98698 -1.23958,-3.28125 -1.14844,-1.22136 -3.84636,-2.3698 z m -15.38541,-14.49219 v 18.52083 h 3.77344 v 2.46094 h -3.77344 v 6.34375 h -2.80729 v -6.34375 h -10.82813 v -2.3151 l 9.36979,-18.66667 z m -2.80729,18.52083 v -9.47916 q 0,-1.73177 0.14583,-6.58073 h -0.63802 q -2.11458,4.84896 -2.60677,5.86979 l -4.95833,10.1901 z m -23.07814,9.47917 q 0,0 0,0 z m -1.23958,-28.18229 -8.91406,27.50781 h -4.08334 l -8.80468,-27.50781 h 3.51823 l 4.70312,15.67708 q 0.51042,1.69532 1.33073,4.75782 0.76562,2.80729 1.16667,4.15624 h 0.60156 q 0.25521,-0.91145 1.25781,-4.66666 0.65625,-2.46094 1.16667,-4.13802 l 4.8125,-15.78646 z m -24.53645,0 v 2.77083 h -8.6224 v 24.73698 h -3.28125 v -24.73698 h -8.54948 v -2.77083 z m -23.40625,0 v 2.77083 h -8.6224 v 24.73698 h -3.28125 v -24.73698 h -8.54948 v -2.77083 z m -32.5573,28.18229 q 0,0 0,0 z m -10.64582,0 q 0,0 0,0 z m -10.64584,0 q 0,0 0,0 z m -10.64583,0 q 0,0 0,0 z m -10.64583,0 q 0,0 0,0 z m -10.64584,0 q 0,0 0,0 z m -10.64583,0 q 0,0 0,0 z m -10.64583,0 q 0,0 0,0 z m -18.10414,9.16927 a 55,55 0 0 1 -55,55 55,55 0 0 1 -55,-55 55,55 0 0 1 55,-55 55,55 0 0 1 55,55 z"
                 style="font-style:normal;font-variant:normal;font-weight:500;font-stretch:normal;font-size:37.33333206px;font-family:'Yu Gothic';-inkscape-font-specification:'Yu Gothic Medium';fill:#ffffff;fill-opacity:0"
                 id="path1087"
                 inkscape:connector-curvature="0" />
            </g>
            <g
               transform="translate(0.20844063,-1.2790297)"
               style="fill:#ffffff;fill-opacity:0;stroke:#2f4052;stroke-width:4.0629921;stroke-linecap:round;stroke-linejoin:round;stroke-miterlimit:4;stroke-dasharray:none;stroke-opacity:1"
               id="g831">
              <path
                 inkscape:connector-curvature="0"
                 d="m 79.97,63.932 c -5.07,5.07 -11.844,7.389 -18.477,6.979 L 39.05,48.468 C 38.612,41.439 41.249,34.248 46.963,29.1 55.936,21.032 69.817,20.954 78.854,28.944 89.332,38.193 89.7,54.202 79.97,63.932 Z"
                 style="fill:#ffffff;fill-opacity:0;stroke:#2f4052;stroke-width:4.0629921;stroke-linecap:round;stroke-linejoin:round;stroke-miterlimit:4;stroke-dasharray:none;stroke-opacity:1"
                 id="path829" />
            </g>
            <g
               transform="translate(0.20844063,-1.2790297)"
               style="fill:#ffffff;fill-opacity:0;stroke:#2f4052;stroke-width:4.05921268;stroke-linecap:round;stroke-linejoin:round;stroke-miterlimit:4;stroke-dasharray:none;stroke-opacity:1"
               id="g839">
              <path
                 inkscape:connector-curvature="0"
                 d="M 61.423,70.841 C 56,68.56 51.424,67.023 47.606,70.841 L 33.029,85.417 c -1.562,1.562 -4.095,1.562 -5.657,0 l -2.828,-2.828 c -1.562,-1.562 -1.562,-4.095 0,-5.657 L 39.121,62.355 c 3.818,-3.818 1.879,-8.796 0,-13.817 z"
                 style="fill:#ffffff;fill-opacity:0;stroke:#2f4052;stroke-width:4.05921268;stroke-linecap:round;stroke-linejoin:round;stroke-miterlimit:4;stroke-dasharray:none;stroke-opacity:1"
                 id="path837" />
            </g>
            <g
               transform="translate(0.20844063,-1.2790297)"
               id="g847"
               style="fill:#ffffff;fill-opacity:0;stroke:#2f4052;stroke-width:4.02519703;stroke-miterlimit:4;stroke-dasharray:none;stroke-opacity:1">
              <circle
                 cx="42"
                 cy="34"
                 r="8"
                 style="fill:#ffffff;fill-opacity:0;stroke:#2f4052;stroke-width:4.02519703;stroke-miterlimit:4;stroke-dasharray:none;stroke-opacity:1"
                 id="circle845" />
            </g>
          </g>
        </g>
      </g>
    </g>
  </g>
</svg>
